# xmcd
#
# Track frame offsets:
#	150
#	18567
#	37356
#	59033
#	80835
#	100684
#	115533
#	133319
#	146746
#	163995
#	179410
#
# Disc length: 2550 seconds
#
# Revision: 1
# Processed by: cddbd v1.5.2PL0 Copyright (c) Steve Scherf et al.
# Submitted via: audiograbber 1.83.01
#
DISCID=a909f40b
DTITLE=Rolando Boldrin - Rolando Boldrin
DYEAR=1900
DGENRE=Moda de Viiola
TTITLE0=Casinha de Paia
TTITLE1=Pomba do Mato
TTITLE2=Romance de Uma Caveira
TTITLE3=Vaca Estrela e Boi Fuba
TTITLE4=Vide-Vida Marvada
TTITLE5=Vou Busca Boiada
TTITLE6=La Vai Minha Garca
TTITLE7=Coracao de Violeiro
TTITLE8=Folha Seca
TTITLE9=Recordacao
TTITLE10=Caçada de Onca
EXTD=
EXTT0=
EXTT1=
EXTT2=
EXTT3=
EXTT4=
EXTT5=
EXTT6=
EXTT7=
EXTT8=
EXTT9=
EXTT10=
PLAYORDER=
